# xmcd
#
# Track frame offsets:
#	150
#	7260
#	19050
#	29663
#	41873
#	53408
#	76838
#	89866
#	104146
#	109284
#	116237
#	127555
#	138850
#	150933
#	164688
#	175571
#	190091
#
# Disc length: 2598 seconds
#
# Revision: 1
# Processed by: cddbd v1.5.2PL0 Copyright (c) Steve Scherf et al.
# Submitted via: audiograbber 1.83.01
#
DISCID=df0a2411
DTITLE=Porter Wagoner - In Person
DYEAR=1964
DGENRE=Country
TTITLE0=Howdy Neighbor Howdy
TTITLE1=Misery Loves Company
TTITLE2=Head Over Heels In Love With You
TTITLE3=I Didn't Mean It_Norma Jean
TTITLE4=Foggy Mountain Top
TTITLE5=Comedy: Sweet Fern_Speck Rhodes
TTITLE6=Medley: Haven't You Heard - Eat, Drink And Merry (For Tomorrow You'll Cr
TTITLE6=y), A Satisified Mind
TTITLE7=I Thought Of God
TTITLE8=Sally Goodin'_Jack Little
TTITLE9=Come On In
TTITLE10=My Baby's Not Here (In Town Tonight)
TTITLE11=Talk Back Trembling Lips_Norma Jean
TTITLE12=Priate Little World_Norma Jean
TTITLE13=Comedy_Speck Rhodes
TTITLE14=Find Out
TTITLE15=An Old Log Cabin For Sale
TTITLE16=John Henry_Jack Little
EXTD=This is from LP of mine that I have made into a CD
EXTT0=
EXTT1=
EXTT2=
EXTT3=
EXTT4=
EXTT5=
EXTT6=
EXTT7=
EXTT8=
EXTT9=
EXTT10=
EXTT11=
EXTT12=
EXTT13=
EXTT14=
EXTT15=
EXTT16=
PLAYORDER=
